<svg xmlns="http://www.w3.org/2000/svg" viewBox="0 0 150 150">
<!-- SVG created with Arrow, by QuiverAI (https://quiver.ai) -->
  <style type="text/css">.cls-0 {fill:#F69220;}
.cls-1 {fill:#E07720;}
.cls-2 {fill:#FDE8CB;}
.cls-3 {fill:#E2BA8E;}
.cls-4 {fill:#44240E;}
.cls-5 {fill:#FFFFFF;}
.cls-6 {fill:#F2A572;}
.cls-7 {fill:#FFDEB3;}
.cls-8 {fill:none;stroke:#44240E;stroke-width:1.1507;stroke-linecap:round;stroke-linejoin:round;stroke-miterlimit:10;}
.cls-9 {fill:#E57241;}
.cls-10 {fill:none;stroke:#44240E;stroke-width:0.9357;stroke-linecap:round;stroke-linejoin:round;stroke-miterlimit:10;}
.cls-11 {fill:none;stroke:#44240E;stroke-width:0.936;stroke-linecap:round;stroke-linejoin:round;stroke-miterlimit:10;}
.cls-12 {fill:#FDE8CB;}
.cls-13 {fill:#E2BA8E;stroke:#44240E;stroke-width:1.2844;stroke-linecap:round;stroke-linejoin:round;stroke-miterlimit:10;}
.cls-14 {fill:#FFFFFF;}
.cls-15 {fill:#ED7544;stroke:#44240E;stroke-width:1.2369;stroke-linecap:round;stroke-linejoin:round;stroke-miterlimit:10;}
.cls-16 {fill:#D16038;}
.cls-17 {fill:#E2C7A3;}
.cls-18 {fill:none;stroke:#44240E;stroke-width:1.2369;stroke-linecap:round;stroke-linejoin:round;stroke-miterlimit:10;}</style>
  <path d="m147.5 115.1c0.4-1.9 1.5-7.2-0.5-13.2 0.5-2 1.2-5.1 1-9.3-0.2-3.9-1.2-7.6-2.5-10.8-0.2-1.4-0.7-2.7-1.2-3.9 2.1-1.8 0.3-4.6-0.9-7.1 2-1.7-0.3-4.4-1.6-7.2 1.9-1.5 0.1-4.4-3.1-9 1.6-1.8 0.8-4.2-1.7-5.2l-3.4-1.7c-0.4-1.7-2.9-4.9-4.4-6.5 1.8-3-1.6-4.7-3.5-5.9 0.3-2-1.3-3.3-3.2-3.7-0.2-7.2-2.6-24.6-4.7-27.7-0.9-1.6-2.4-2.4-4.1-2.2-4.6 0.2-15.2 5.4-23.1 12l-2.7-0.5c0.1-1.5-1.5-2.9-3.3-2.8-1.9 0.2-4.1 0.4-6 1-0.5-1.2-1.8-1.9-3-1.6-2.3 0.5-4.6 1.5-7.2 3.2-2.3-1.2-4-2.1-7.9-2.6-1.9-0.2-3.7 1.3-3.6 3-1.3 0.1-2.7 0.2-4.2 0.5-5.4-5-16.5-11.7-21.2-12.1-1.9-0.2-3.8 0.7-4.8 2.5-2.5 4.8-5.5 21.2-5.6 31-2.2 1.4-4.9 3-2.9 5.5-2.1 2.6-3.7 3.6-3 6.1l-3.7 2.5c-3.2 1.6-2.6 4.7-0.7 5.8-4.2 5.1-4.9 7.3-3.2 9.2-2.3 3.6-4.4 7-1.9 8.7-2.5 4.8-4.2 8.4-1.4 10.5-1.6 4.9-2.8 11.5-2.3 21 0.6 12.5 7.3 36 28.4 42.1 3.4 1.1 7.4 1.8 12.1 1.8l70.5 0.2c17.6 0.2 39.1-10.8 35-33.2l-0.5-0.4z" fill="#44240E"/>
  <path d="m140.5 75.1c-0.7-2.6-2.9-5.2-4.7-7.1-0.6-0.6-0.5-1 0.5-0.9 1.2 0.2 3.4 0.9 3.6 0.8-0.9-2.4-3.2-4.5-5.3-6.4-0.7-0.5-0.5-1.1 0.6-1l3 0.5c-1.2-2.2-3.2-4.7-6.1-6.3-1-0.5-1-0.8 0.3-1.2l2.8-0.7c-3.1-1.4-6.4-2.7-8-4.6-0.8-0.8-0.3-1.5 1-0.9l0.7 0.1c-1-2.6-3.3-4.7-6.1-6.4-0.9-0.5-1-1 0-1.2l2.6-0.3c-1.4-1.3-3-2.1-4.8-2.7-0.9-0.3-1.4-0.6-0.4-1.2l0.9-0.5-3.9-0.8c-1.1-3.9-2.1-26.8-3.6-28.4-1.1-1-11.9 3.9-21.7 12.2-0.7 0.6-1.7 0.7-2.8 0.5-0.5-0.1-0.5-0.2-0.1-0.8l0.2-0.3c-2.5-0.6-4.6-0.7-7.8-0.2-1.2 0.2-0.9-0.4 0.5-1.6l1.3-1.2c-2.5 0.1-5.3 1.1-7.7 2.8-1.2 0.7-1.6-0.7-0.5-3.3-1.8 0.6-3.9 1.9-6.4 4-2.2-1.8-5-3.2-7.7-3.4l2.2 2.3c0.7 0.7 0.6 1.1-0.4 0.9-3.2-0.6-5.9-0.5-8.9 0.2l0.6 0.4c0.6 0.4 0.7 0.8-0.3 0.9l-1.8 0.1c-6.5-6-20.4-13.6-21.4-13.5-1.8 0.3-5.8 16.9-5.3 29.5l1-0.1c1.1-0.1 1.3 0.7 0.3 1.2l-4.7 2.6 2.6 0.3c1.2 0.1 1.3 0.5 0.2 1.2-1.9 1.2-4.3 3-5.4 4.7l2.3-0.4c1-0.1 1.1 0.2 0.3 0.9l-1.8 1.6c0.5 1.8-4.8 3.7-6.4 5.6l3 0.7c0.9 0.1 1.1 0.4 0.4 1-2.6 2-4.9 4.6-6.1 7.3 0.9-0.4 2.3-0.7 3.4-0.7 1 0 1.2 0.2 0.4 0.9-2.5 2.1-5 4.8-6.1 7.4 1.2-0.5 3.1-1.1 4.5-1.5 0.9-0.2 0.9 0.3 0.3 0.9-2.8 2.7-5.6 6.4-6.5 10.4 1.1-0.9 2.8-2 3.9-2.5-6.6 13.5-7.3 29.7-1.4 44.2 3.6 8.4 10 17.4 21.8 20.7 3 0.9 6.3 1.5 10 1.5h41.5l29.3 0.1c7.8 0.1 16.9-2 24-8.3 4.5-4 8.2-10 7.2-12.7l0.3 1.2c0.8-2.8 0-6.1-0.3-6.5-1.1 3-2.6 4.3-2.7 3.5 2.6-4.2 3-11.7 2-16.2l-0.8 1c-0.7 0.8-1.4 0.5-0.7-0.8 4.3-8.6 2-22.7-5.3-27l4.4-2.5z" fill="#F69220"/>
  <path d="m37 135.5c-17.1-7.7-27.2-20.9-26.3-45.4-1.6 2.7-2.8 12.7-4.1 16.3 0.7 10 6.5 31.6 25 35.5 3 0.8 6.3 1.4 10 1.4h2.3l-0.1-0.1c-2.4-1.5-5.2-3.7-6.8-7.7z" fill="#E07720"/>
  <path d="m35.2 123.9c-0.1 6.2 1.5 15.5 8.7 19.4h53l-0.1-0.2-14.3-6.5c-11.3 1.8-32.1 4-47.3-12.7z" fill="#E2BA8E"/>
  <path d="m103.5 69.5 5.4-0.4-5.8-1.3c-12.2-1.4-16.6-6.2-21.2-8.9-4-2.3-11.4-3.4-17.8-0.8-4.1 1.8-9.2 7.3-22.7 9.7-0.8 0.2 2.9 1.4 2.9 1.4-1.2 0.8-6 2-6.9 3.6h4c2.7 0.1 0.7 0.6-2.3 1.8-1.3 0.5-3.2 1.6-3.2 1.8l2-0.2c1.2 0.2 0.2 0.3-2.2 1.2-2.8 1-7.5 3.1-7.6 3.8l6.1-1.3c-1.8 1.3-4.3 3.5-4.9 4.9l5.3-1.3c-1.3 1.1-4.7 4-5.2 5.6l4.9-1.3c-3.6 4.6-10.8 9.2-11.3 13.4-0.1 1 2.9-0.3 2.9-0.3l-0.3 1.8h0.5l-1.6 4.1 2.5-1.7c-1.4 2.7-2.6 9-1.6 9s4.5-2.1 4.7-2.2l-1.6 3.3 3-1.7c-1.5 2.4-2.8 5.4-2 7.6l2.7-3.6c-1.1 2.6-1.6 7.4 0 8.2l2.9-4.5 0.1 2.7c10.7 10.7 24.7 15.1 39 13.7l8.3-1 14.3 6.5h15.6c7.5 0.1 16.1-1.9 23.1-7.4 1.9-1.6 2.6-5 2.1-5l-0.1 0.5-0.1 0.2-0.3-0.3c3-3.6 4.5-7.5 4.4-10.5h-0.5c2.6-3.7 3.1-11.4 2-16.2l-0.9-0.3c3-6.2 2-21.5-5.7-26.3-1.6-1.1-4.3-2.4-7.5-3.2-2.3 0.8-2.9 1-3 1.1-0.3 0-12-2.1-16-3.6l0.3 0.3-6.2-2 5-1.2-5.5-0.3v0.6z" fill="#FDE8CB"/>
  <path d="m58.6 98.9c2.5 2.1 8.3 3.2 11.8 3.2 4.1-0.2 8.5-1.5 10.2-2.5l-1.5-4.2c-1.4 1.2-5.7 3.2-8.2 3.5l0.7-1.9c-1.9 1.1-4 2.6-5.7 2.6l2-2.5c-2.5 1.4-6.9 2.3-9.3 1.8z" fill="#D6B086"/>
  <path d="m30.2 103.2c-1.1 1-2.7 4.7-2.6 6.4 3.5-1.4 7-3.7 8.4-6.6-1.6 0.6-4.8 1.1-5.8 0.2z" fill="#F69220"/>
  <path d="m28.1 12.6 1.1-1-1.6 4.9c-1 5.1-2.2 12.9-2 18.9l1-0.1 6-3.6 0.1 0.3 2.3-2.1 0.6-0.3 0.6-1 2.7-1.7-0.8-1.3 3.3-0.5c-0.8-3.5-7.2-14.7-10-16-1 0-2.2 1.5-3.3 3.5z" fill="#F2A572"/>
  <path d="m115.6 12.4v-0.3l-0.2 0.5 0.2-0.2-0.6-3.2-1.9-0.6c-2-0.4-11 14-10.6 15.3l2.1-0.3-0.5 0.9 2.9 0.7-0.9 0.4 1 0.4-1.2 0.4 2.7 1.1-1.2-0.6-1.4-0.5 0.1 0.2 3 0.9-1-0.6-2.1-0.5v0.2l3.2 1-3.1-1.2 0.5 0.2 2.3 0.4-2.9-0.6v0.2l1.1 0.4h-1l3 1-0.9-1.1 2.3 1.2h-1l3.6 2.1 4.4 2.9h0.1c0.8-4.2-1-16.6-2-20.7z" fill="#F2A572"/>
  <path d="m33.5 20.4 3.5 4.1c-2.1-0.5-5-0.6-6.4 0l3.8 2.9c-1.8 0.2-5.2 1.2-5.2 2l3.4 0.8c-1.1 0.7-3 2-3.1 2.4l3-0.9 2.1-1.8 0.5-0.3 1.5-1.2-0.2-0.4 3.2-1.9-1.4-0.6 3.2-0.4c-1.8-1.9-5.4-4.7-7.9-4.7z" fill="#FFDEB3"/>
  <path d="m31.4 9.4c1.5 2.3 6.1 8.6 7.4 12.1-1.7-1.1-4.4-2.3-6.2-2.3-2 0.7 1.2 2.9 2.9 4.7-1.6-0.4-5.4-0.8-5.4 0.7 0 0.9 2 1.6 3 2.4-1.6 0.4-4.5 1.4-4.5 2.4-0.1 0.8 1.8 0.7 2.6 1-0.8 0.6-2.2 1.6-2.1 2.2 0.1 1 3-0.6 3.5-0.9l-2-0.1 2.5-1.5-3-1.1c1.4-0.6 3.5-1.1 4.9-1.2l0.4-0.4-3.9-2.8c1.7-0.2 3.9 0 5.6 0.6l0.4-0.6c-1.1-1.4-3.3-3.2-4-4.2 2.6 0.1 5.4 2.2 7.1 4.1 1 0.9 0.9-0.9-0.2-3.1-2-4.2-6-11-8.2-12.3-0.1 0-1.2-0.2-0.8 0.3z" fill="#44240E"/>
  <path d="m112.5 8.9c-2.4 1.1-9.9 11.5-10.8 14.6-0.1 0.4 0.7 0.7 0.9 0.4 1.8-1.9 4.8-4.3 7.4-4.7l-4.1 4.4 5.5-1.5-3.4 3.3 0.5 0.1c1.6-0.4 3.7-0.1 5.1 0.2l-4 1.9 3.8 1-2 0.6 2.2 1.2c-2.1 0-0.5 0.5 0.5 0 2.4 0.1 1-1.8-1.5-2.6 0.8-0.3 2.9-1.2 2.6-1.9-0.8-1.3-3.5-1.5-4.7-1.7 1-0.8 2.9-2.6 1.9-3.2-0.8-0.4-3 0.5-3.5 0.6l2.1-2.4c1.6-2.3-3.6-0.8-6.6 1.4 2.2-4.5 5.7-9 8.2-11.5 0.6-0.5 0.3-0.5-0.1-0.2z" fill="#44240E"/>
  <path d="m115.4 12.4 0.5-0.3c-0.7-3.5-1.3-6.2-2.3-6.2l1.8 6.5z" fill="#44240E"/>
  <path d="m108.1 28 5 2.2-1.5-1.1 1.9-0.5-3.1-1 3.2-1.9-5.1-0.3 2.9-3.3-4.8 1.4 3.4-4.3-5.9 4.4 0.3 0.9 2.6 0.6-0.9 0.4 1.3 0.5-1.4 0.4 2.9 1.1-0.8 0.5z" fill="#FFE9C0"/>
  <path d="m82.7 121.9c-0.8 1.7-1.3 6-0.3 6l0.1-1 1.9 6.7c-0.9-0.5-1.9-2.2-1.9-2.5-0.6 2.3-0.4 5.5 0 6.4l0.6-1.6c0.5 2.5 1.5 5.8 3.4 7.5h10.4c-5.7-2.3-9.7-7.4-11.4-12.4l2.4 1.7c-2-2.3-5-7.6-5.2-10.8z" fill="#E07720"/>
  <path d="m82.7 111.4c-0.6 5 1.8 11.5 3 13.2 0.7 1.4-1.5 0.3-3-2.9-0.2 3.4 3.2 8.7 5.2 10.9l-2.4-1.6c1.7 5 5.7 10.1 11.4 12.4h15.5c8.1 0.1 17.2-2.2 25-8.9l0.5-0.9 0.6-3-1.1 0.8c2.5-3.2 4.3-6.8 4.1-10.8h-0.5c1.4-1.7 2.5-5.5 2.1-9.9l-0.5-6.3-1 0.2-0.4 0.9-0.2 0.1c-0.4 8.3-5.3 31.9-29.6 32.5-20.3 0.3-25.3-15.2-26.5-25.7-1-0.2-1.8-1-2.2-1z" fill="#E2BA8E"/>
  <path d="m35.1 50.6 11.9 1c0.9 4.4 8.9 7.3 11.5 0.8l5.6 0.2c-2.6 7.3-14.7 10.4-21.5 7.3-3.2-1.3-7.5-4.8-8.5-9l1-0.3z" fill="#fff"/>
  <path d="m80.6 52.4 6-0.4c2 5.1 9.8 4.6 11.3-0.9l12.6-1.1v0.6c-1.4 5.8-7.4 9.3-12.9 10.3-6.5 1-14.5-1.7-17-7.9v-0.6z" fill="#fff"/>
  <path d="m65.4 50.6-24.5-1.7c-3-0.3-6.8-0.5-9.5-0.5-1.3 0-1.4 1.2 0 1.4l1.7 0.3c2 7.4 8.5 12.5 17.3 12.3 6.1-0.2 12.7-2.3 15.5-9.4 1.7-1.6 1.7-4.6-0.4-11.5l-0.9-0.5c-0.2 0.1-0.2 0.5-0.1 0.7 0.9 2.8 2.4 7.2 0.9 8.9zm-16 10c-5.2 0-12.4-2.6-14.3-9.9l11.8 1.2c0.7 3.2 3.7 5.2 6.5 5.1 2.5 0 4.5-1.4 5.2-4.1l5 0.2c-2.2 4.8-8.5 7.5-14.2 7.5z" fill="#44240E"/>
  <path d="m113 47.7c-9.1 0.2-21.4 1.3-33 2.2l-0.8 0.1c-1.3-1.5-0.1-5.9 0.9-8.5l-0.4-0.6c-0.8 0.1-2.3 5.2-2 7.7 0.2 1.4 0.7 2.8 1.7 3.8 2.5 6.1 8.1 9.5 15.5 9.6 7.2 0.1 15.1-3.1 16.8-11.5l1.7-0.5c1.5-0.4 1-2.1-0.4-2.3zm-17.9 12.5c-5.6 0-11.2-1.8-13.9-7.2l5.3-0.4c1.1 3 3.9 4.1 6.1 4 2.8-0.1 5-2 5.5-5l11.5-1.4c-0.9 5.3-6.9 9.8-14.5 10z" fill="#44240E"/>
  <path d="m68.1 56.7-0.4 0.8 4.8 3.9 4.9-3.9-0.7-1c-1.8-0.4-7.2-0.5-8.6 0.2z" fill="#E57241"/>
  <path class="cls-8" d="m67.9 57.5c-0.3 0.9 2.1 1.7 2.7 2.5l2.1 1.4 2.3-1.5c0.9-0.8 2.9-1.7 2.1-3-0.6-0.9-6.6-0.9-8.2-0.5l-1 0.3v0.8z"/>
  <path class="cls-9" d="m70.6 58.9-0.2-0.4 0.6 0.6 0.4 1.3 2 0.2 1-0.6-0.3-1.1 0.8-0.4 0.6 0.1-0.8-0.6-1.2 0.9v1l-0.9 0.5-1.2-0.4-0.3-1.4-0.7-0.4-0.8 0.3z"/>
  <path class="cls-10" d="m72.7 61.4v5"/>
  <path class="cls-11" d="m69.1 69.4 3.5-2.8 3.6 2.6"/>
  <path d="m70.1 58.4c0.5-0.3 1.4 0.5 1 1.1l-1-0.6v-0.5z" fill="#44240E"/>
  <path d="m75.4 58.5c-0.3-0.4-1.3 0.1-1 0.9 0 0 1-0.5 1-0.9z" fill="#44240E"/>
  <path d="m85.6 86.4c-3 1.1-5.5 8.2-5 12.5 0.9-4.8 2.5-9.3 5.9-11.4l-0.9-1.1z" fill="#FFE9C8"/>
  <path d="m121.4 71.5c4.2 0.6 6.7 5.4 7.1 10.9 1.6-2.8-0.9-5.8 3.1-6l4.4 1c7.5 3 9.6 16.7 7.1 23.6l-0.5 3.4c-1 6.8-2.1 14.8-1.6 16.2 0.4 1 2.5-4 2.6-3.5 2.3 5.5-1 14.1-6.2 17.4-6.3 5.7-14.7 9-25 8.9h-25.9c-1.9-1.7-2.9-5-3.4-7.5l-0.6 1.6c-1-1.6-0.6-6.6 0-6.4l1.9 2.5-1.9-6.7-0.1 1c-1.3 0.1 0.1-6.3 0.3-6.2 1.4 2.9 3.7 4.3 3 2.9-1.6-2.5-3.6-8.6-3-13.2 1.2 1 2.4 1.7 1.8 0.7-4.1-6.1-5.9-20 1.1-25.7l3.9-2.4c2.9-0.4 3.7 0.5 4.1 1.6l0.8 3.3c-0.9-4.4 0.7-12 5.7-13.9l3.5-0.9h0.9c3.1-0.6 5.6 1.3 6.6 3.9l0.3 0.5c-0.2-4 5.2-7.9 10-7z" fill="#FDE8CB"/>
  <path d="m94.2 86.5c0.4-3.6 2.9-8.6 5.9-9.9l-0.2-1.6c-3.5 1.4-6.7 6.9-5.7 11.5z" fill="#fff"/>
  <path d="m111.1 78.4 0.3 0.1c-0.2-3.1 3.7-5.9 6.2-5.1l-0.2-3.4c-2.7 0.5-7.3 3.5-6.3 8.4z" fill="#fff"/>
  <path d="m121.1 73.1c2.5 0.4 5.5 3.8 6.9 8.1 0-4.3-2.4-9.1-6.6-9.7l-0.3 1.6z" fill="#fff"/>
  <path d="m104.1 75.6c2.5 0 5.1 1.5 6.4 3.9l-0.4-3.1c-1.9-2-3.7-2.8-6-2.3v1.5z" fill="#fff"/>
  <path d="m89.5 85.6 3.4 0.3-0.3-2.3s-3.6-1.2-4 0l0.9 2z" fill="#fff"/>
  <path d="m128.6 77.6 2.9-1v-2l-3 1z" fill="#fff"/>
  <path d="m136 77.4-0.9-0.3v1.8s7 3.6 8.5 15.5c0.3-4.8-1.6-14.4-7.6-17z" fill="#fff"/>
  <path d="m143.6 117.1-2.5 3.3h0.5c0 4.2-2.1 7.8-4.2 10.7l1.1-0.5-1 3.5c3.7-3 8.4-11.5 6.1-17z" fill="#D1671C"/>
  <path class="cls-4" d="m92.2 81.6c-1-0.2-2.6 0-2.6 0-0.6-1.5-0.7-4.2-2-3.8-1 0.3-2.5 3.7-2.5 6.1-3.4 2.7-6.2 5.7-6.5 13.2-0.1 5.5 1 10 1.8 11.9-0.9 3.6 0 9.1 0.5 10.6-1.8 3.5-1.9 8.5-0.5 10l0.1 0.3c-1.4 3.7-0.5 9.2 1 9.1 0.4 2 1 3.5 1.6 4.4h3.5c-1.7-1.8-3-7.4-3.5-7.5l-0.6 1.6c-0.6-2-0.6-4.4 0-6.4l1.9 2.5-1.9-6.7-0.1 0.2c-1 0-0.5-3.7 0.3-5.4 1.7 3.2 3.9 4.5 3 2.9-2.1-3.2-3.6-10.7-3-13.2 1.7 1.3 2.4 1.7 1.7 0.7-4.3-6.7-5.5-21.2 1.7-25.7 0.8 3.5 4.4 2.5 3.9-0.8l-0.3-1.6c1.7-0.1 2.9 0 3.2 0.9 0.2 2.6 2 4.7 1.5 3.5-1.3-4 0.7-11.3 5.7-13.3 0.6 4.5 4.9 3.5 4.3-0.7 3-0.5 5.3 1.7 6.1 3.7 1 2 1.6 1.8 0.9-0.5 0.1-2.6 3-5.5 5.5-6.1 0.3-0.1 0.1 0 0 0 0 1.4 0.2 3.1 2.1 3.5 1.4 0.2 2.4-1.4 2.2-3.4 3.9 0 6.9 5.5 6.9 10 0 1.3 1.1 0 0.8-4.1 0.2-0.6 2.7-1.4 2.7-1.1v2.2c1 2.8 4.5 2.8 4.5-1.2 5.8 2.2 9.4 12.7 7 22.1l-2 5.5c-0.2 1.6 1.9-0.9 1.9-0.6 1.1 6.1 0 12.2-2 16.2 0.6 0.5 2-1.2 2.6-3.5 2.5 7.9-1.5 13.4-6.2 17.4l0.2 1.4c4.9-3.2 12-11 9.5-20.9 0.8-4.1 0.8-7.5 0-12.9 1.8-7 1.4-15-1.5-20.6-0.1-1.1-0.7-2.6-1.2-3.7 2.2-1.7 0-4.9-0.9-7.2 2.1-1.7-0.4-4.6-1.8-7.1 2-1.4 0-4.6-3.1-8.8 1.8-1.8 0.8-4.3-1.6-5.3l-3.4-2v-0.4l-2.2 3 3.7 2.6-2.5 0.8c2.3 1.7 5.3 4.1 6.9 8l-5.1-0.9c2.5 2.1 5.1 4.2 6.6 8.4l-4.9-1.5c2.1 2 4.6 4.5 5.8 8.2l-3.3-1.6 1.8 3.5-4-2.6v-0.3h-0.3v-0.1l-0.1 0.1 0.1 0.3 0.3 0.1 0.1 2.1-0.9-0.2v-0.5l-1.1-0.8-2.4-1-1.6-0.7-1.6 0.5 0.1 0.2-0.1-0.1 0.1 0.1h-0.1v-0.1l0.1 0.1v-0.1 0.1h-0.1l0.1-0.1h-0.5l-1 0.5-1 1.1-0.4 0.5 0.5 1.9c0.8 1.9 1.4 3.1 1.5 3.9 0.4-2.5-1-10.8-6.6-12.4v-1.1h-3.9c-3.2 0.2-6.2 1.7-8.1 4.6-1.1-1-3.5-1.9-5.4-1.9l-4.7 0.9c-3.3 1.4-6.3 4.6-7.2 9.1z"/>
  <path d="m125 103.6c-0.8-0.2-2.6-6.2-10.6-6.9-7 0-9.8 4.8-11 7.3-1.3 2.5-7.3 2.6-7.2 10.1 0.4 5.4 6.4 9.8 13.7 6.5 7.6-3.5 9 0.3 14-0.1 4.6-0.1 8.6-3.9 8-9-0.4-3.5-3-7.1-6.9-7.9z" fill="#E57241" stroke="#44240E" stroke-linecap="round" stroke-linejoin="round" stroke-miterlimit="10" stroke-width="1.237"/>
  <path class="cls-16" d="m131.1 110.5c-1 4.6-5.6 8.6-11.5 6.1-7.6-3.2-9.7 1.8-15.1 2-3.1 0-7-2.2-7.9-5.6l-0.4 2c0.4 5.5 6.4 8.9 13.7 5.6 7.6-3.5 9 0.3 14-0.1 4.6-0.1 8.8-4 7.6-9.5l-0.4-0.5z"/>
  <path class="cls-15" d="m113.2 86.7"/>
  <path class="cls-16" d="m96.2 94.1c2.2 3.8 1.7 10.8-4.1 11.8-5.4 0.1-6.6-5.5-5.6-10.4l9.7-1.4z"/>
  <path class="cls-9" d="m96.4 95c0.3 3.5-1.8 7.2-4.9 7.4-2.9 0-4.8-2.8-4.9-6 0.5-2.9 1.9-5.5 4.9-5.5 2.4 0 4.2 1.6 4.9 4.1z"/>
  <path class="cls-15" d="m97.5 99.5"/>
  <path class="cls-16" d="m109.6 83.1c1.9 2.8 2.5 10.4-3 12.5-6.2 1.1-8.6-3.5-8.4-8.5l11.4-4z"/>
  <path class="cls-9" d="m108.9 83c0.7 4-1 9.6-5.3 9.9-2.7-0.3-4.7-3.3-5.2-7 0.5-2.9 2.2-5.3 5.1-5.5 2.5-0.4 4.6 0.6 5.4 2.6z"/>
  <path class="cls-16" d="m124.5 83.9c0.5 5.2-1 9.5-5.1 10-5.5 0.2-6.3-4.3-6-9.3l11.1-0.7z"/>
  <path class="cls-9" d="m123.9 82.1c0 3.6-1.8 8.4-4.9 8.5-3.5 0-5-3-5.4-6.6 0.5-2.9 2.3-5.6 5-5.9 2.8-0.1 4.5 1.4 5.3 4z"/>
  <path class="cls-16" d="m138.2 89.5c0.7 4.1-0.8 9.6-5.2 9.9-5.1 0.2-5.9-3.8-5.6-8.8l10.8-1.1z"/>
  <path class="cls-9" d="m137.6 87.9c0 3.5-1.6 8-4.7 8.1-3.4 0.1-5-2.6-5.3-6 0.4-3.1 2-5.6 4.8-6.1 2.7-0.3 4.2 1.7 5.2 4z"/>
  <path d="m97.5 99.5c0.1 3.4-2.1 6.1-5.4 6.4-3.6 0.1-6-2.8-5.7-8.5 0.2-2.9 2-6.4 5.1-6.5 3.4 0 5.9 3.7 6 8.6z" fill="none" stroke="#44240E" stroke-linecap="round" stroke-linejoin="round" stroke-miterlimit="10" stroke-width="1.237"/>
  <path d="m110 84.9c0.9 3.1 1.4 9.5-4.5 10.8-4.6 0.4-7.5-2.3-7.5-7.6 0-4.2 2.1-7.7 5.5-7.7 3.1-0.4 5.6 2 6.5 4.5z" fill="none" stroke="#44240E" stroke-linecap="round" stroke-linejoin="round" stroke-miterlimit="10" stroke-width="1.237"/>
  <path d="m124.7 84.9c0.4 5-1.2 9-6.1 9-3.7-0.3-5.6-2.8-5.4-7.5 0.2-4.3 2.3-8.4 5.7-8.4 3.2 0 5.2 2.9 5.8 6.9z" fill="none" stroke="#44240E" stroke-linecap="round" stroke-linejoin="round" stroke-miterlimit="10" stroke-width="1.237"/>
  <path d="m138.5 91.6c0 4.5-2.4 7.8-6 7.6-3.6-0.1-5.4-2.3-5.3-7.1 0.2-4 2.3-8.2 5.9-8.2 3 0 5.5 3.2 5.4 7.7z" fill="none" stroke="#44240E" stroke-linecap="round" stroke-linejoin="round" stroke-miterlimit="10" stroke-width="1.237"/>
  <path class="cls-15" d="m124.9 86.1"/>
  <path class="cls-14" d="m87.5 79.6c-0.6 1.4-1.6 6.1-0.4 7.9 0.8 0.9 1.9 0.4 1.9-0.6s-1.4-7.8-1.5-7.3z"/>
  <path class="cls-17" d="m87.5 82.1-0.6 3.5 0.2 1.5c0.8 1.3 1.9 0.8 1.9-0.2l-0.1-1.4-1.4-3.4z"/>
  <path class="cls-14" d="m101.2 67.9c-0.6 1.3-1.2 7.7 0.3 9.1 1.1 0.6 2-0.1 2-1.3 0.4-0.8-2-8.3-2.3-7.8z"/>
  <path class="cls-17" d="m101.7 71.6-0.6 2.9c0 0.7 0.1 1.9 0.4 2.1 1.1 1 2.1 0.3 2-0.9l-0.1-1.1-1.7-3z"/>
  <path class="cls-14" d="m118.6 64.4c-0.6 1.2-2 8.2-0.2 9.5 1 0.6 1.8 0 2-1 0.6-2.3-1-9.3-1.8-8.5z"/>
  <path class="cls-17" d="m118.9 67.5-0.9 2.9 0.1 2.7c0.8 1.4 1.9 0.8 2-0.2v-2.3l-1.2-3.1z"/>
  <path class="cls-14" d="m133.1 70.6c-0.6-1-0.6-0.1-1 3-0.2 2-0.7 5.5 1.1 6 2.2 0.3 1.9-6.2-0.1-9z"/>
  <path class="cls-17" d="m133.6 78.9c0.4-1 0.5-3.3 0-5.3h-0.2-0.3l-0.5 3c-0.1 1.4 0.1 2.5 1 2.3z"/>
  <path class="cls-18" d="m86.1 85.9c0-3.3 1-5.9 1.9-7.5 0.5 0.2 1.6 6.1 1.4 8.2-0.2 2-3 2.9-3.3-0.7z"/>
  <path class="cls-18" d="m100.3 71.9c0-1 0.3-4 0.8-4.3 0.8-0.2 3.3 5.3 2.8 8.4-0.3 1.6-3.5 2.9-3.6-4.1z"/>
  <path class="cls-18" d="m117.4 70.4c0.1-1.9 0.6-5.8 1.2-6.3 0.9-0.6 3.3 6 1.8 9.4-0.7 1.5-3.3 1.5-3-3.1z"/>
  <path class="cls-18" d="m132.4 70c-0.5 0.1-0.8 6.6-0.3 9 0.5 1.4 3.6 2.4 3.5-3-0.1-1.5-2.1-6-3.2-6z"/>
</svg>